<svg viewBox="0 0 512 512" xmlns="http://www.w3.org/2000/svg" role="img" aria-label="The Nightstand">
  <rect width="512" height="512" fill="#1b1436"/>
  <g transform="translate(256 256) scale(0.78) translate(-256 -256)" fill="#e9b85c">
    <path d="M182 158h148l38 92H144z"/>
    <rect x="246" y="250" width="20" height="104" rx="6"/>
    <rect x="200" y="350" width="112" height="18" rx="9"/>
    <rect x="96" y="374" width="320" height="14" rx="7"/>
    <path d="M120 220l7 19 19 7-19 7-7 19-7-19-19-7 19-7z"/>
    <path d="M392 230l6 16 16 6-16 6-6 16-6-16-16-6 16-6z"/>
  </g>
</svg>
